<?xml version="1.0" encoding="UTF-8"?>
<svg xmlns="http://www.w3.org/2000/svg" width="1200" height="800" viewBox="0 0 1200 800">
  <rect width="100%" height="100%" fill="#FFFFFF"/>
  <line x1="116.00" y1="666.92" x2="556.00" y2="666.92" stroke="#CCCCCC" stroke-width="1" stroke-dasharray="4 4"/><line x1="116.00" y1="565.28" x2="556.00" y2="565.28" stroke="#CCCCCC" stroke-width="1" stroke-dasharray="4 4"/><line x1="116.00" y1="463.64" x2="556.00" y2="463.64" stroke="#CCCCCC" stroke-width="1" stroke-dasharray="4 4"/><line x1="116.00" y1="362.00" x2="556.00" y2="362.00" stroke="#CCCCCC" stroke-width="1" stroke-dasharray="4 4"/><line x1="116.00" y1="260.36" x2="556.00" y2="260.36" stroke="#CCCCCC" stroke-width="1" stroke-dasharray="4 4"/><line x1="116.00" y1="158.72" x2="556.00" y2="158.72" stroke="#CCCCCC" stroke-width="1" stroke-dasharray="4 4"/><line x1="116.00" y1="57.08" x2="556.00" y2="57.08" stroke="#CCCCCC" stroke-width="1" stroke-dasharray="4 4"/><polyline points="133.60,549.87 201.07,519.28 268.53,488.68 336.00,458.08 403.47,427.49 470.93,396.89 538.40,366.29" fill="none" stroke="#0B5E47" stroke-width="2.2" stroke-linejoin="round" stroke-linecap="round"/><circle cx="133.60" cy="549.87" r="6.0" fill="#1B9E77" stroke="#0B5E47" stroke-width="1.25"/><circle cx="201.07" cy="519.28" r="6.0" fill="#1B9E77" stroke="#0B5E47" stroke-width="1.25"/><circle cx="268.53" cy="488.68" r="6.0" fill="#1B9E77" stroke="#0B5E47" stroke-width="1.25"/><circle cx="336.00" cy="458.08" r="6.0" fill="#1B9E77" stroke="#0B5E47" stroke-width="1.25"/><circle cx="403.47" cy="427.49" r="6.0" fill="#1B9E77" stroke="#0B5E47" stroke-width="1.25"/><circle cx="470.93" cy="396.89" r="6.0" fill="#1B9E77" stroke="#0B5E47" stroke-width="1.25"/><circle cx="538.40" cy="366.29" r="6.0" fill="#1B9E77" stroke="#0B5E47" stroke-width="1.25"/><polyline points="133.60,489.84 201.07,433.28 268.53,374.59 336.00,314.71 403.47,254.19 470.93,193.33 538.40,132.31" fill="none" stroke="#7A3500" stroke-width="2.2" stroke-dasharray="6 4" stroke-linejoin="round" stroke-linecap="round"/><rect x="129.36" y="485.60" width="8.49" height="8.49" fill="#D95F02" stroke="#7A3500" stroke-width="1.25"/><rect x="196.82" y="429.03" width="8.49" height="8.49" fill="#D95F02" stroke="#7A3500" stroke-width="1.25"/><rect x="264.29" y="370.35" width="8.49" height="8.49" fill="#D95F02" stroke="#7A3500" stroke-width="1.25"/><rect x="331.76" y="310.47" width="8.49" height="8.49" fill="#D95F02" stroke="#7A3500" stroke-width="1.25"/><rect x="399.22" y="249.95" width="8.49" height="8.49" fill="#D95F02" stroke="#7A3500" stroke-width="1.25"/><rect x="466.69" y="189.09" width="8.49" height="8.49" fill="#D95F02" stroke="#7A3500" stroke-width="1.25"/><rect x="534.16" y="128.07" width="8.49" height="8.49" fill="#D95F02" stroke="#7A3500" stroke-width="1.25"/><polyline points="133.60,581.63 201.07,525.07 268.53,466.38 336.00,406.50 403.47,345.98 470.93,285.12 538.40,224.10" fill="none" stroke="#6F1618" stroke-width="2.2" stroke-dasharray="2 3" stroke-linejoin="round" stroke-linecap="round"/><polygon points="133.60,574.13 126.70,585.76 140.50,585.76" fill="#C1272D" stroke="#6F1618" stroke-width="1.25" stroke-linejoin="round"/><polygon points="201.07,517.57 194.17,529.19 207.97,529.19" fill="#C1272D" stroke="#6F1618" stroke-width="1.25" stroke-linejoin="round"/><polygon points="268.53,458.88 261.63,470.51 275.43,470.51" fill="#C1272D" stroke="#6F1618" stroke-width="1.25" stroke-linejoin="round"/><polygon points="336.00,399.00 329.10,410.63 342.90,410.63" fill="#C1272D" stroke="#6F1618" stroke-width="1.25" stroke-linejoin="round"/><polygon points="403.47,338.48 396.57,350.10 410.37,350.10" fill="#C1272D" stroke="#6F1618" stroke-width="1.25" stroke-linejoin="round"/><polygon points="470.93,277.62 464.03,289.25 477.83,289.25" fill="#C1272D" stroke="#6F1618" stroke-width="1.25" stroke-linejoin="round"/><polygon points="538.40,216.60 531.50,228.23 545.30,228.23" fill="#C1272D" stroke="#6F1618" stroke-width="1.25" stroke-linejoin="round"/><line x1="116.00" y1="672.00" x2="556.00" y2="672.00" stroke="#1A1A1A" stroke-width="1.8"/><line x1="116.00" y1="52.00" x2="116.00" y2="672.00" stroke="#1A1A1A" stroke-width="1.8"/><line x1="133.60" y1="672.00" x2="133.60" y2="678.00" stroke="#1A1A1A" stroke-width="1.2"/><text transform="translate(133.60,698.00) rotate(-40)" text-anchor="end" font-family="system-ui, -apple-system, 'Segoe UI', Roboto, 'Helvetica Neue', Arial, sans-serif" font-size="14" fill="#222222">16k</text><line x1="201.07" y1="672.00" x2="201.07" y2="678.00" stroke="#1A1A1A" stroke-width="1.2"/><text transform="translate(201.07,698.00) rotate(-40)" text-anchor="end" font-family="system-ui, -apple-system, 'Segoe UI', Roboto, 'Helvetica Neue', Arial, sans-serif" font-size="14" fill="#222222">33k</text><line x1="268.53" y1="672.00" x2="268.53" y2="678.00" stroke="#1A1A1A" stroke-width="1.2"/><text transform="translate(268.53,698.00) rotate(-40)" text-anchor="end" font-family="system-ui, -apple-system, 'Segoe UI', Roboto, 'Helvetica Neue', Arial, sans-serif" font-size="14" fill="#222222">66k</text><line x1="336.00" y1="672.00" x2="336.00" y2="678.00" stroke="#1A1A1A" stroke-width="1.2"/><text transform="translate(336.00,698.00) rotate(-40)" text-anchor="end" font-family="system-ui, -apple-system, 'Segoe UI', Roboto, 'Helvetica Neue', Arial, sans-serif" font-size="14" fill="#222222">131k</text><line x1="403.47" y1="672.00" x2="403.47" y2="678.00" stroke="#1A1A1A" stroke-width="1.2"/><text transform="translate(403.47,698.00) rotate(-40)" text-anchor="end" font-family="system-ui, -apple-system, 'Segoe UI', Roboto, 'Helvetica Neue', Arial, sans-serif" font-size="14" fill="#222222">262k</text><line x1="470.93" y1="672.00" x2="470.93" y2="678.00" stroke="#1A1A1A" stroke-width="1.2"/><text transform="translate(470.93,698.00) rotate(-40)" text-anchor="end" font-family="system-ui, -apple-system, 'Segoe UI', Roboto, 'Helvetica Neue', Arial, sans-serif" font-size="14" fill="#222222">524k</text><line x1="538.40" y1="672.00" x2="538.40" y2="678.00" stroke="#1A1A1A" stroke-width="1.2"/><text transform="translate(538.40,698.00) rotate(-40)" text-anchor="end" font-family="system-ui, -apple-system, 'Segoe UI', Roboto, 'Helvetica Neue', Arial, sans-serif" font-size="14" fill="#222222">1M</text><line x1="111.00" y1="666.9" x2="116.00" y2="666.9" stroke="#1A1A1A"/><text x="106.00" y="671.4" text-anchor="end" font-family="system-ui, -apple-system, 'Segoe UI', Roboto, 'Helvetica Neue', Arial, sans-serif" font-size="13" fill="#222222">10<tspan font-size="10" baseline-shift="super">13</tspan></text><line x1="111.00" y1="565.3" x2="116.00" y2="565.3" stroke="#1A1A1A"/><text x="106.00" y="569.8" text-anchor="end" font-family="system-ui, -apple-system, 'Segoe UI', Roboto, 'Helvetica Neue', Arial, sans-serif" font-size="13" fill="#222222">10<tspan font-size="10" baseline-shift="super">14</tspan></text><line x1="111.00" y1="463.6" x2="116.00" y2="463.6" stroke="#1A1A1A"/><text x="106.00" y="468.1" text-anchor="end" font-family="system-ui, -apple-system, 'Segoe UI', Roboto, 'Helvetica Neue', Arial, sans-serif" font-size="13" fill="#222222">10<tspan font-size="10" baseline-shift="super">15</tspan></text><line x1="111.00" y1="362.0" x2="116.00" y2="362.0" stroke="#1A1A1A"/><text x="106.00" y="366.5" text-anchor="end" font-family="system-ui, -apple-system, 'Segoe UI', Roboto, 'Helvetica Neue', Arial, sans-serif" font-size="13" fill="#222222">10<tspan font-size="10" baseline-shift="super">16</tspan></text><line x1="111.00" y1="260.4" x2="116.00" y2="260.4" stroke="#1A1A1A"/><text x="106.00" y="264.9" text-anchor="end" font-family="system-ui, -apple-system, 'Segoe UI', Roboto, 'Helvetica Neue', Arial, sans-serif" font-size="13" fill="#222222">10<tspan font-size="10" baseline-shift="super">17</tspan></text><line x1="111.00" y1="158.7" x2="116.00" y2="158.7" stroke="#1A1A1A"/><text x="106.00" y="163.2" text-anchor="end" font-family="system-ui, -apple-system, 'Segoe UI', Roboto, 'Helvetica Neue', Arial, sans-serif" font-size="13" fill="#222222">10<tspan font-size="10" baseline-shift="super">18</tspan></text><line x1="111.00" y1="57.1" x2="116.00" y2="57.1" stroke="#1A1A1A"/><text x="106.00" y="61.6" text-anchor="end" font-family="system-ui, -apple-system, 'Segoe UI', Roboto, 'Helvetica Neue', Arial, sans-serif" font-size="13" fill="#222222">10<tspan font-size="10" baseline-shift="super">19</tspan></text><text transform="translate(50.0,362.0) rotate(-90)" text-anchor="middle" font-family="system-ui, -apple-system, 'Segoe UI', Roboto, 'Helvetica Neue', Arial, sans-serif" font-size="15" font-weight="700" fill="#111111">Attention FLOPs / sequence</text><text x="336.0" y="756.0" text-anchor="middle" font-family="system-ui, -apple-system, 'Segoe UI', Roboto, 'Helvetica Neue', Arial, sans-serif" font-size="15" font-weight="700" fill="#111111">Sequence length</text><rect x="130.0" y="66.0" width="296.4" height="76.0" fill="#FFFFFF" fill-opacity="0.92" stroke="#1A1A1A" stroke-width="1"/><line x1="138.0" y1="82.0" x2="158.0" y2="82.0" stroke="#0B5E47" stroke-width="2.2" stroke-linecap="round"/><circle cx="148.00" cy="82.00" r="4.0" fill="#1B9E77" stroke="#0B5E47" stroke-width="1.25"/><text x="164.0" y="86.0" font-family="system-ui, -apple-system, 'Segoe UI', Roboto, 'Helvetica Neue', Arial, sans-serif" font-size="13" font-weight="500" fill="#222222">Looped linear attention (ours)</text><line x1="138.0" y1="104.0" x2="158.0" y2="104.0" stroke="#7A3500" stroke-width="2.2" stroke-dasharray="6 4" stroke-linecap="round"/><rect x="145.17" y="101.17" width="5.66" height="5.66" fill="#D95F02" stroke="#7A3500" stroke-width="1.25"/><text x="164.0" y="108.0" font-family="system-ui, -apple-system, 'Segoe UI', Roboto, 'Helvetica Neue', Arial, sans-serif" font-size="13" font-weight="500" fill="#222222">Looped full attention</text><line x1="138.0" y1="126.0" x2="158.0" y2="126.0" stroke="#6F1618" stroke-width="2.2" stroke-dasharray="2 3" stroke-linecap="round"/><polygon points="148.00,121.00 143.40,128.75 152.60,128.75" fill="#C1272D" stroke="#6F1618" stroke-width="1.25" stroke-linejoin="round"/><text x="164.0" y="130.0" font-family="system-ui, -apple-system, 'Segoe UI', Roboto, 'Helvetica Neue', Arial, sans-serif" font-size="13" font-weight="500" fill="#222222">Standard Transformer (full attention)</text>
  <line x1="712.00" y1="665.92" x2="1152.00" y2="665.92" stroke="#CCCCCC" stroke-width="1" stroke-dasharray="4 4"/><line x1="712.00" y1="544.35" x2="1152.00" y2="544.35" stroke="#CCCCCC" stroke-width="1" stroke-dasharray="4 4"/><line x1="712.00" y1="422.78" x2="1152.00" y2="422.78" stroke="#CCCCCC" stroke-width="1" stroke-dasharray="4 4"/><line x1="712.00" y1="301.22" x2="1152.00" y2="301.22" stroke="#CCCCCC" stroke-width="1" stroke-dasharray="4 4"/><line x1="712.00" y1="179.65" x2="1152.00" y2="179.65" stroke="#CCCCCC" stroke-width="1" stroke-dasharray="4 4"/><line x1="712.00" y1="58.08" x2="1152.00" y2="58.08" stroke="#CCCCCC" stroke-width="1" stroke-dasharray="4 4"/><polyline points="729.60,600.26 797.07,563.66 864.53,527.07 932.00,490.47 999.47,453.87 1066.93,417.28 1134.40,380.68" fill="none" stroke="#0B5E47" stroke-width="2.2" stroke-linejoin="round" stroke-linecap="round"/><circle cx="729.60" cy="600.26" r="6.0" fill="#1B9E77" stroke="#0B5E47" stroke-width="1.25"/><circle cx="797.07" cy="563.66" r="6.0" fill="#1B9E77" stroke="#0B5E47" stroke-width="1.25"/><circle cx="864.53" cy="527.07" r="6.0" fill="#1B9E77" stroke="#0B5E47" stroke-width="1.25"/><circle cx="932.00" cy="490.47" r="6.0" fill="#1B9E77" stroke="#0B5E47" stroke-width="1.25"/><circle cx="999.47" cy="453.87" r="6.0" fill="#1B9E77" stroke="#0B5E47" stroke-width="1.25"/><circle cx="1066.93" cy="417.28" r="6.0" fill="#1B9E77" stroke="#0B5E47" stroke-width="1.25"/><circle cx="1134.40" cy="380.68" r="6.0" fill="#1B9E77" stroke="#0B5E47" stroke-width="1.25"/><polyline points="729.60,556.63 797.07,496.62 864.53,431.50 932.00,362.86 999.47,292.10 1066.93,220.16 1134.40,147.61" fill="none" stroke="#7A3500" stroke-width="2.2" stroke-dasharray="6 4" stroke-linejoin="round" stroke-linecap="round"/><rect x="725.36" y="552.38" width="8.49" height="8.49" fill="#D95F02" stroke="#7A3500" stroke-width="1.25"/><rect x="792.82" y="492.37" width="8.49" height="8.49" fill="#D95F02" stroke="#7A3500" stroke-width="1.25"/><rect x="860.29" y="427.25" width="8.49" height="8.49" fill="#D95F02" stroke="#7A3500" stroke-width="1.25"/><rect x="927.76" y="358.61" width="8.49" height="8.49" fill="#D95F02" stroke="#7A3500" stroke-width="1.25"/><rect x="995.22" y="287.85" width="8.49" height="8.49" fill="#D95F02" stroke="#7A3500" stroke-width="1.25"/><rect x="1062.69" y="215.92" width="8.49" height="8.49" fill="#D95F02" stroke="#7A3500" stroke-width="1.25"/><rect x="1130.16" y="143.37" width="8.49" height="8.49" fill="#D95F02" stroke="#7A3500" stroke-width="1.25"/><polyline points="729.60,660.48 797.07,602.52 864.53,538.99 932.00,471.38 999.47,401.22 1066.93,329.61 1134.40,257.23" fill="none" stroke="#6F1618" stroke-width="2.2" stroke-dasharray="2 3" stroke-linejoin="round" stroke-linecap="round"/><polygon points="729.60,652.98 722.70,664.61 736.50,664.61" fill="#C1272D" stroke="#6F1618" stroke-width="1.25" stroke-linejoin="round"/><polygon points="797.07,595.02 790.17,606.65 803.97,606.65" fill="#C1272D" stroke="#6F1618" stroke-width="1.25" stroke-linejoin="round"/><polygon points="864.53,531.49 857.63,543.11 871.43,543.11" fill="#C1272D" stroke="#6F1618" stroke-width="1.25" stroke-linejoin="round"/><polygon points="932.00,463.88 925.10,475.51 938.90,475.51" fill="#C1272D" stroke="#6F1618" stroke-width="1.25" stroke-linejoin="round"/><polygon points="999.47,393.72 992.57,405.34 1006.37,405.34" fill="#C1272D" stroke="#6F1618" stroke-width="1.25" stroke-linejoin="round"/><polygon points="1066.93,322.11 1060.03,333.74 1073.83,333.74" fill="#C1272D" stroke="#6F1618" stroke-width="1.25" stroke-linejoin="round"/><polygon points="1134.40,249.73 1127.50,261.35 1141.30,261.35" fill="#C1272D" stroke="#6F1618" stroke-width="1.25" stroke-linejoin="round"/><line x1="712.00" y1="672.00" x2="1152.00" y2="672.00" stroke="#1A1A1A" stroke-width="1.8"/><line x1="712.00" y1="52.00" x2="712.00" y2="672.00" stroke="#1A1A1A" stroke-width="1.8"/><line x1="729.60" y1="672.00" x2="729.60" y2="678.00" stroke="#1A1A1A" stroke-width="1.2"/><text transform="translate(729.60,698.00) rotate(-40)" text-anchor="end" font-family="system-ui, -apple-system, 'Segoe UI', Roboto, 'Helvetica Neue', Arial, sans-serif" font-size="14" fill="#222222">16k</text><line x1="797.07" y1="672.00" x2="797.07" y2="678.00" stroke="#1A1A1A" stroke-width="1.2"/><text transform="translate(797.07,698.00) rotate(-40)" text-anchor="end" font-family="system-ui, -apple-system, 'Segoe UI', Roboto, 'Helvetica Neue', Arial, sans-serif" font-size="14" fill="#222222">33k</text><line x1="864.53" y1="672.00" x2="864.53" y2="678.00" stroke="#1A1A1A" stroke-width="1.2"/><text transform="translate(864.53,698.00) rotate(-40)" text-anchor="end" font-family="system-ui, -apple-system, 'Segoe UI', Roboto, 'Helvetica Neue', Arial, sans-serif" font-size="14" fill="#222222">66k</text><line x1="932.00" y1="672.00" x2="932.00" y2="678.00" stroke="#1A1A1A" stroke-width="1.2"/><text transform="translate(932.00,698.00) rotate(-40)" text-anchor="end" font-family="system-ui, -apple-system, 'Segoe UI', Roboto, 'Helvetica Neue', Arial, sans-serif" font-size="14" fill="#222222">131k</text><line x1="999.47" y1="672.00" x2="999.47" y2="678.00" stroke="#1A1A1A" stroke-width="1.2"/><text transform="translate(999.47,698.00) rotate(-40)" text-anchor="end" font-family="system-ui, -apple-system, 'Segoe UI', Roboto, 'Helvetica Neue', Arial, sans-serif" font-size="14" fill="#222222">262k</text><line x1="1066.93" y1="672.00" x2="1066.93" y2="678.00" stroke="#1A1A1A" stroke-width="1.2"/><text transform="translate(1066.93,698.00) rotate(-40)" text-anchor="end" font-family="system-ui, -apple-system, 'Segoe UI', Roboto, 'Helvetica Neue', Arial, sans-serif" font-size="14" fill="#222222">524k</text><line x1="1134.40" y1="672.00" x2="1134.40" y2="678.00" stroke="#1A1A1A" stroke-width="1.2"/><text transform="translate(1134.40,698.00) rotate(-40)" text-anchor="end" font-family="system-ui, -apple-system, 'Segoe UI', Roboto, 'Helvetica Neue', Arial, sans-serif" font-size="14" fill="#222222">1M</text><line x1="707.00" y1="665.9" x2="712.00" y2="665.9" stroke="#1A1A1A"/><text x="702.00" y="670.4" text-anchor="end" font-family="system-ui, -apple-system, 'Segoe UI', Roboto, 'Helvetica Neue', Arial, sans-serif" font-size="13" fill="#222222">10<tspan font-size="10" baseline-shift="super">14</tspan></text><line x1="707.00" y1="544.4" x2="712.00" y2="544.4" stroke="#1A1A1A"/><text x="702.00" y="548.9" text-anchor="end" font-family="system-ui, -apple-system, 'Segoe UI', Roboto, 'Helvetica Neue', Arial, sans-serif" font-size="13" fill="#222222">10<tspan font-size="10" baseline-shift="super">15</tspan></text><line x1="707.00" y1="422.8" x2="712.00" y2="422.8" stroke="#1A1A1A"/><text x="702.00" y="427.3" text-anchor="end" font-family="system-ui, -apple-system, 'Segoe UI', Roboto, 'Helvetica Neue', Arial, sans-serif" font-size="13" fill="#222222">10<tspan font-size="10" baseline-shift="super">16</tspan></text><line x1="707.00" y1="301.2" x2="712.00" y2="301.2" stroke="#1A1A1A"/><text x="702.00" y="305.7" text-anchor="end" font-family="system-ui, -apple-system, 'Segoe UI', Roboto, 'Helvetica Neue', Arial, sans-serif" font-size="13" fill="#222222">10<tspan font-size="10" baseline-shift="super">17</tspan></text><line x1="707.00" y1="179.6" x2="712.00" y2="179.6" stroke="#1A1A1A"/><text x="702.00" y="184.1" text-anchor="end" font-family="system-ui, -apple-system, 'Segoe UI', Roboto, 'Helvetica Neue', Arial, sans-serif" font-size="13" fill="#222222">10<tspan font-size="10" baseline-shift="super">18</tspan></text><line x1="707.00" y1="58.1" x2="712.00" y2="58.1" stroke="#1A1A1A"/><text x="702.00" y="62.6" text-anchor="end" font-family="system-ui, -apple-system, 'Segoe UI', Roboto, 'Helvetica Neue', Arial, sans-serif" font-size="13" fill="#222222">10<tspan font-size="10" baseline-shift="super">19</tspan></text><text transform="translate(646.0,362.0) rotate(-90)" text-anchor="middle" font-family="system-ui, -apple-system, 'Segoe UI', Roboto, 'Helvetica Neue', Arial, sans-serif" font-size="15" font-weight="700" fill="#111111">Forward FLOPs / sequence</text><text x="932.0" y="756.0" text-anchor="middle" font-family="system-ui, -apple-system, 'Segoe UI', Roboto, 'Helvetica Neue', Arial, sans-serif" font-size="15" font-weight="700" fill="#111111">Sequence length</text><rect x="726.0" y="66.0" width="296.4" height="76.0" fill="#FFFFFF" fill-opacity="0.92" stroke="#1A1A1A" stroke-width="1"/><line x1="734.0" y1="82.0" x2="754.0" y2="82.0" stroke="#0B5E47" stroke-width="2.2" stroke-linecap="round"/><circle cx="744.00" cy="82.00" r="4.0" fill="#1B9E77" stroke="#0B5E47" stroke-width="1.25"/><text x="760.0" y="86.0" font-family="system-ui, -apple-system, 'Segoe UI', Roboto, 'Helvetica Neue', Arial, sans-serif" font-size="13" font-weight="500" fill="#222222">Looped linear attention (ours)</text><line x1="734.0" y1="104.0" x2="754.0" y2="104.0" stroke="#7A3500" stroke-width="2.2" stroke-dasharray="6 4" stroke-linecap="round"/><rect x="741.17" y="101.17" width="5.66" height="5.66" fill="#D95F02" stroke="#7A3500" stroke-width="1.25"/><text x="760.0" y="108.0" font-family="system-ui, -apple-system, 'Segoe UI', Roboto, 'Helvetica Neue', Arial, sans-serif" font-size="13" font-weight="500" fill="#222222">Looped full attention</text><line x1="734.0" y1="126.0" x2="754.0" y2="126.0" stroke="#6F1618" stroke-width="2.2" stroke-dasharray="2 3" stroke-linecap="round"/><polygon points="744.00,121.00 739.40,128.75 748.60,128.75" fill="#C1272D" stroke="#6F1618" stroke-width="1.25" stroke-linejoin="round"/><text x="760.0" y="130.0" font-family="system-ui, -apple-system, 'Segoe UI', Roboto, 'Helvetica Neue', Arial, sans-serif" font-size="13" font-weight="500" fill="#222222">Standard Transformer (full attention)</text>
</svg>
